<svg xmlns="http://www.w3.org/2000/svg" xmlns:xlink="http://www.w3.org/1999/xlink"><symbol id="icon-flag-australia"><g fill-rule="nonzero" fill="none"><path d="M64.31.33H6A6.64 6.64 0 0 0 .25 5.91v35.72a6.64 6.64 0 0 0 6.56 5.64H63.5a6.64 6.64 0 0 0 6.64-6.64V6.92A6.64 6.64 0 0 0 64.31.33z" fill="#4658A9"/><path d="M25.11.29H6.71A6.64 6.64 0 0 0 .14 6.93v17.32h25L25.11.29z" fill="#4658A9"/><path d="M10.68 17.69v6.56h3.9v-6.71l6.71 6.71h3.82v-3l-7-7h7v-4h-7l7-7v-3h-3.83l-6.7 6.7V.25h-3.9v6.56L4.52.65A6.66 6.66 0 0 0 .89 3.82l6.41 6.41H.14v4H7.3L.14 21.39v2.83h4l6.54-6.53z" fill="#FFF"/><path d="M11.68 14.95v9.31h1.9V14.8L23 24.25h2.08V23l-9.78-9.78h9.78v-1.93H15.3l9.78-9.78V.29H23l-9.45 9.45V.29h-1.9v9.3L3.32 1.25A6.67 6.67 0 0 0 1.56 2.8l8.49 8.49H.12v1.95h9.93L.12 23.17v1.09h2.23l9.33-9.31z" fill="#EC5463"/><path d="M41.83 13.17c-.32.23-.51.1-.41-.29l.35-1.43a1.3 1.3 0 0 0-.37-1.17l-1-.91c-.3-.26-.22-.48.17-.49h1.46a1.05 1.05 0 0 0 .91-.71l.46-1.57c.11-.38.31-.39.44 0l.55 1.54a1.1 1.1 0 0 0 1 .68h1.49c.39 0 .47.22.17.48l-1.13 1a1.24 1.24 0 0 0-.34 1.16l.36 1.26c.11.38-.07.52-.41.32l-1.21-.75a1.16 1.16 0 0 0-1.19 0l-1.3.88zM53.83 17.17c-.32.23-.51.1-.41-.29l.35-1.43a1.3 1.3 0 0 0-.37-1.17l-1-.91c-.3-.26-.22-.48.17-.49h1.46a1.05 1.05 0 0 0 .91-.71l.46-1.57c.11-.38.31-.39.44 0l.55 1.54a1.1 1.1 0 0 0 1 .68h1.49c.39 0 .47.22.17.48l-1.13 1a1.24 1.24 0 0 0-.34 1.16l.36 1.26c.11.38-.07.52-.41.32l-1.21-.75a1.16 1.16 0 0 0-1.19 0l-1.3.88zM35.83 24.17c-.32.23-.51.1-.41-.29l.35-1.43a1.3 1.3 0 0 0-.37-1.17l-1-.91c-.3-.26-.22-.48.17-.49h1.46a1.05 1.05 0 0 0 .91-.71l.46-1.57c.11-.38.31-.39.44 0l.55 1.54a1.1 1.1 0 0 0 1 .68h1.49c.39 0 .47.22.17.48l-1.13 1a1.24 1.24 0 0 0-.34 1.16l.36 1.26c.11.38-.07.52-.41.32l-1.21-.75a1.16 1.16 0 0 0-1.19 0l-1.3.88zM11.29 40.14c-.41.29-.65.13-.53-.37l.44-1.84a1.67 1.67 0 0 0-.48-1.5l-1.35-1.17c-.38-.33-.28-.61.22-.63l1.89-.05a1.35 1.35 0 0 0 1.18-.91l.59-2c.14-.49.4-.5.57 0l.71 2a1.42 1.42 0 0 0 1.23.88h1.92c.5 0 .61.28.23.62l-1.46 1.28a1.59 1.59 0 0 0-.44 1.5l.47 1.62c.14.49-.1.67-.53.4l-1.56-1a1.51 1.51 0 0 0-1.53 0l-1.57 1.17zM50.34 29.2c-.23.16-.36.07-.3-.2l.25-1a.93.93 0 0 0-.27-.83l-.75-.65c-.21-.18-.16-.34.12-.35h1a.75.75 0 0 0 .65-.51l.33-1.12c.08-.27.22-.28.32 0l.4 1.1a.79.79 0 0 0 .68.49h1.07c.28 0 .34.16.13.34l-.81.71A.88.88 0 0 0 53 28l.26.9c.08.27-.05.37-.29.23l-.87-.54a.84.84 0 0 0-.85 0l-.91.61z" fill="#FFF"/></g></symbol><symbol id="icon-flag-bosnia"><g fill-rule="nonzero" fill="none"><rect fill="#4758A9" x=".9" y=".13" width="70" height="47" rx="6.36"/><path fill="#F6D660" d="M13.9.13h37v47z"/><path d="M8.19 4.88c-.27-.08-.28-.24 0-.36l1-.44a.93.93 0 0 0 .49-.73v-1c0-.28.17-.33.35-.12l.67.8c.203.22.517.3.8.2l1.08-.43c.26-.11.36 0 .2.24l-.62 1a.79.79 0 0 0 0 .84l.65.85c.17.22.08.36-.19.31l-1.06-.2a.88.88 0 0 0-.8.32l-.55.76c-.17.23-.33.19-.36-.09l-.11-1a.84.84 0 0 0-.55-.65l-1-.3zM12.51 10.38c-.27-.08-.28-.24 0-.36l1-.44a.92.92 0 0 0 .49-.73v-1c0-.28.17-.33.35-.12l.67.8c.203.22.517.3.8.2l1.08-.43c.26-.1.35 0 .2.24l-.62 1a.79.79 0 0 0 0 .84l.65.85c.17.22.08.36-.19.31l-1.06-.2a.88.88 0 0 0-.8.32l-.55.76c-.17.23-.33.19-.36-.09l-.12-1a.84.84 0 0 0-.55-.65l-.99-.3zM16.84 15.88c-.27-.08-.28-.24 0-.36l1-.44a.92.92 0 0 0 .49-.73v-1c0-.28.17-.33.35-.12l.67.81c.203.22.517.3.8.2l1.08-.43c.26-.11.35 0 .2.24l-.62 1a.79.79 0 0 0 0 .84l.65.85c.17.22.08.36-.19.31l-1.06-.2a.88.88 0 0 0-.8.32l-.55.76c-.16.23-.33.19-.36-.09l-.11-1a.84.84 0 0 0-.55-.65l-1-.31zM21.17 21.38c-.27-.08-.28-.24 0-.36l1-.44a.92.92 0 0 0 .49-.73v-1c0-.28.17-.33.35-.12l.67.81c.203.22.517.3.8.2l1.08-.43c.26-.1.35 0 .2.24l-.62 1a.79.79 0 0 0 0 .84l.65.85c.17.22.08.36-.19.31l-1.06-.2a.88.88 0 0 0-.8.32l-.55.76c-.17.23-.33.19-.36-.09l-.12-1a.83.83 0 0 0-.55-.65l-.99-.31zM25.5 26.88c-.27-.08-.28-.24 0-.36l1-.44a.93.93 0 0 0 .49-.73v-1c0-.28.17-.33.35-.12l.67.81c.203.22.517.3.8.2l1.08-.43c.26-.11.35 0 .2.24l-.62 1a.79.79 0 0 0 0 .84l.65.85c.17.22.08.36-.19.31l-1.06-.2a.88.88 0 0 0-.8.32l-.55.76c-.17.23-.33.19-.36-.09l-.12-1a.83.83 0 0 0-.55-.65l-.99-.31zM29.83 32.38c-.27-.08-.28-.24 0-.36l1-.44a.93.93 0 0 0 .49-.73v-1c0-.28.17-.33.35-.12l.67.81c.203.22.517.3.8.2l1.08-.43c.26-.11.35 0 .2.24l-.62 1a.79.79 0 0 0 0 .84l.65.85c.17.22.08.36-.19.31l-1.06-.2a.88.88 0 0 0-.8.32l-.55.76c-.17.23-.33.19-.36-.09l-.12-1a.84.84 0 0 0-.55-.65l-.99-.31zM34.16 37.89c-.27-.08-.28-.24 0-.36l1-.44a.93.93 0 0 0 .49-.73v-1c0-.28.17-.34.35-.12l.67.81c.203.22.517.3.8.2l1.08-.43c.26-.11.35 0 .2.24l-.62 1a.79.79 0 0 0 0 .84l.65.85c.17.22.08.36-.19.31l-1.06-.2a.88.88 0 0 0-.8.32l-.55.76c-.17.23-.33.19-.36-.09l-.12-1a.84.84 0 0 0-.55-.65l-.99-.31zM37.87 42.6c-.27-.08-.28-.24 0-.36l1-.44a.93.93 0 0 0 .49-.73v-1c0-.28.17-.33.35-.12l.67.81c.203.22.517.3.8.2l1.08-.43c.26-.11.35 0 .21.24l-.62 1a.79.79 0 0 0 0 .84l.65.85c.17.22.09.36-.19.31l-1.06-.2a.88.88 0 0 0-.8.32l-.55.76c-.16.23-.33.19-.36-.09l-.12-1a.84.84 0 0 0-.55-.65l-1-.31z" fill="#FFF"/></g></symbol></svg>